<?xml version="1.0" encoding="UTF-8"?>
<svg id="Layer_1" xmlns="http://www.w3.org/2000/svg" version="1.1" viewBox="0 0 1014.19 286.3">
  <!-- Generator: Adobe Illustrator 29.6.0, SVG Export Plug-In . SVG Version: 2.1.1 Build 207)  -->
  <defs>
    <style>
      .st0 {
        fill: #e00;
      }
    </style>
  </defs>
  <g>
    <path class="st0" d="M73.32,237.68L1.42,156.46h74.1l32.32,37.9,32.82-37.9h68.19l-71.23,82.06v43.82h-64.29v-44.67Z"/>
    <path class="st0" d="M291.08,153.93c85.1,0,97.96,36.21,97.96,62.6v5.07c0,25.89-13.03,63.28-97.96,63.28h-8.46c-84.76,0-97.96-37.39-97.96-63.28v-5.07c0-26.39,13.03-62.6,97.96-62.6h8.46ZM286.68,194.03c-27.92,0-35.87,12.52-35.87,23.52v2.03c0,11.33,8.8,24.87,35.87,24.87s36.04-13.2,36.04-24.53v-2.37c0-11-8.46-23.52-36.04-23.52Z"/>
    <path class="st0" d="M394.62,156.46h64.63v51.77c0,13.87,5.92,28.93,32.82,28.93h.34c26.39,0,32.82-15.06,32.82-28.93v-51.77h64.63v58.37c0,25.21-9.64,69.71-93.57,69.71h-8.46c-83.92,0-93.22-44.5-93.22-69.71v-58.37Z"/>
    <path class="st0" d="M650.62,199.78h-54.31v-43.31h172.91v43.31h-54.31v82.57h-64.29v-82.57Z"/>
    <path class="st0" d="M776.84,156.46h64.29v41.79h67.34v-41.79h64.29v125.88h-64.29v-44.83h-67.34v44.83h-64.29v-125.88Z"/>
  </g>
  <g>
    <path class="st0" d="M101.07,1.42c76.11,0,85.05,38.22,85.05,59.85v4.88c0,21.3-8.78,60.5-85.05,60.5h-6.99c-76.6,0-85.22-39.2-85.22-60.5v-4.88C8.86,39.63,17.48,1.42,94.08,1.42h6.99ZM97.49,30.69c-41.47,0-48.95,17.72-48.95,31.71v1.95c0,13.82,8.13,32.85,48.95,32.85s48.95-18.53,48.95-32.52v-2.28c0-13.99-8.13-31.71-48.95-31.71Z"/>
    <path class="st0" d="M208.57,124.52v-63.42h-16.75v-24.07h16.75v-10.41c0-10.9,5.37-23.1,30.41-23.1h26.18v21.47h-13.99c-5.53,0-6.83,2.28-6.83,7.16v4.88h30.74v-10.41c0-10.9,5.37-23.1,30.41-23.1h26.35v21.47h-14.15c-5.53,0-6.83,2.28-6.83,7.16v4.88h20.98v24.07h-20.98v63.42h-35.78v-63.42h-30.74v63.42h-35.78Z"/>
    <path class="st0" d="M378.35,28.58h-36.26V3.53h36.26v25.05ZM378.35,124.52h-36.26V37.04h36.26v87.49Z"/>
    <path class="st0" d="M449.58,126.96c-49.92,0-60.98-25.53-60.98-45.05v-3.25c0-19.52,10.9-44.07,60.82-44.07h9.27c54.64,0,61.47,26.34,61.47,38.22v.49h-37.24c-.82-3.41-4.07-15.78-28.95-15.78h-.49c-21.14,0-27.8,10.57-27.8,21.63v1.14c0,11.71,6.83,23.42,27.8,23.42h.49c24.39,0,28.3-12.52,28.95-16.1h37.24v.33c0,12.19-5.69,39.03-61.63,39.03h-8.95Z"/>
    <path class="st0" d="M596.76,126.96h-9.27c-46.67,0-61.63-21.79-61.63-44.72v-3.57c0-22.45,13.34-44.07,60.66-44.07h9.92c51.22,0,60.82,25.86,60.82,47.16v6.02h-95.78c2.11,10.24,10.9,17.07,30.9,17.07h.16c24.07,0,27.97-8.94,28.46-11.22h35.78v.16c0,11.87-7.8,33.18-60.01,33.18ZM562.12,69.72h58.55c-2.28-9.27-11.06-14.8-29.28-14.8h-.16c-18.22,0-26.35,5.53-29.11,14.8Z"/>
    <path class="st0" d="M785.58,25h-14.15c-5.53,0-6.83,2.28-6.83,7.16v4.88h20.98v24.07h-20.98v63.42h-35.78v-63.42h-16.75v-24.07h16.75v-10.41c0-10.9,5.37-23.1,30.41-23.1h26.35v21.47Z"/>
    <path class="st0" d="M789.32,81.75v-2.93c0-20.16,12.03-44.23,62.77-44.23h11.55c53.18,0,62.61,24.39,62.61,44.23v2.93c0,20.16-8.46,45.21-62.61,45.21h-11.38c-50.74,0-62.94-24.88-62.94-45.21ZM889.49,80.78v-.82c0-10.9-6.99-22.11-31.38-22.11h-.16c-24.88,0-31.55,11.05-31.55,22.11v.82c0,10.24,6.83,22.61,31.55,22.61s31.55-12.36,31.55-22.61Z"/>
    <path class="st0" d="M972.76,86.31v38.22h-36.26V37.04h35.94v20.32c5.2-10.24,15.94-22.28,40.34-22.28v28.94s-40.01-10.82-40.01,22.28Z"/>
  </g>
</svg>